HIERARCHY
ROOT Hips 
{
	OFFSET 0.0   0.0  0.0 
	CHANNELS 6 Xposition Yposition Zposition Zrotation Xrotation Yrotation  
	JOINT Spine 
	{
		OFFSET 0.00000 13.20850 -1.60436
		CHANNELS 3 Zrotation Xrotation Yrotation   
		JOINT Spine1 
		{
			OFFSET 0.00000 8.61716 0.00000
			CHANNELS 3 Zrotation Xrotation Yrotation
			JOINT Spine2 
			{
				OFFSET 0.00000 8.61717 0.00000
				CHANNELS 3 Zrotation Xrotation Yrotation
				JOINT Spine3 
				{
					OFFSET 0.00000 8.61717 0.00000
					CHANNELS 3 Zrotation Xrotation Yrotation
					JOINT Neck 
					{
						OFFSET 0.00000 11.07920 1.10792
						CHANNELS 3 Zrotation Xrotation Yrotation
						JOINT Neck1 
						{
							OFFSET 0.00000 7.08032 0.00000
							CHANNELS 3 Zrotation Xrotation Yrotation
							JOINT Head 
							{
								OFFSET 0.00000 7.08031 0.00000
								CHANNELS 3 Zrotation Xrotation Yrotation
								End site
								{
									OFFSET 0.00000 0.00000 0.00000
								}
							}
						}
					}
					JOINT RightShoulder 
					{
						OFFSET -0.01000 7.91373 5.19711
						CHANNELS 3 Zrotation Xrotation Yrotation
						JOINT RightArm 
						{
							OFFSET -18.41580 0.00000 0.00000
							CHANNELS 3 Zrotation Xrotation Yrotation
							JOINT RightForeArm  
							{
								OFFSET -29.11090 0.00000 0.00000
								CHANNELS 3 Zrotation Xrotation Yrotation
								JOINT RightHand 
								{
									OFFSET -24.65040 0.00000 0.00000
									CHANNELS 3 Zrotation Xrotation Yrotation
									JOINT RightHandThumb1  
									{
										OFFSET -5.35114 -0.85590 3.97906
										CHANNELS 3 Zrotation Xrotation Yrotation
										JOINT RightHandThumb2  
										{
											OFFSET -4.52789 0.00000 0.00000
											CHANNELS 3 Zrotation Xrotation Yrotation
											JOINT RightHandThumb3  
											{
												OFFSET -2.46976 0.00000 0.00000
												CHANNELS 3 Zrotation Xrotation Yrotation
												End site
												{
													OFFSET 0.00000 0.00000 0.00000
												}
											}
										}
									}
									JOINT RightHandIndex1  
									{
										OFFSET -14.26970 0.00000 2.88139
										CHANNELS 3 Zrotation Xrotation Yrotation
										JOINT RightHandIndex2  
										{
											OFFSET -5.48836 0.00000 0.00000
											CHANNELS 3 Zrotation Xrotation Yrotation
											JOINT RightHandIndex3  
											{
												OFFSET -3.01859 0.00000 0.00000
												CHANNELS 3 Zrotation Xrotation Yrotation
												End site
												{
													OFFSET 0.00000 0.00000 0.00000
												}
											}
										}
									}
									JOINT RightHandMiddle1  
									{
										OFFSET -14.26970 0.00000 -0.09147
										CHANNELS 3 Zrotation Xrotation Yrotation
										JOINT RightHandMiddle2 
										{
											OFFSET -6.17441 0.00000 0.00000
											CHANNELS 3 Zrotation Xrotation Yrotation
											JOINT RightHandMiddle3 
											{
												OFFSET -3.56743 0.00000 0.00000
												CHANNELS 3 Zrotation Xrotation Yrotation
												End site
												{
													OFFSET 0.00000 0.00000 0.00000
												}
											}
										}
									}
									JOINT RightHandRing1  
									{
										OFFSET -12.69180 0.00000 -3.06433
										CHANNELS 3 Zrotation Xrotation Yrotation
										JOINT RightHandRing2  
										{
											OFFSET -5.62556 0.00000 0.00000
											CHANNELS 3 Zrotation Xrotation Yrotation
											JOINT RightHandRing3   
											{
												OFFSET -3.56744 0.00000 0.00000
												CHANNELS 3 Zrotation Xrotation Yrotation
												End site
												{
													OFFSET 0.00000 0.00000 0.00000
												}
											}
										}
									}
									JOINT RightHandPinky1   
									{
										OFFSET -11.11390 0.00000 -6.03719
										CHANNELS 3 Zrotation Xrotation Yrotation
										JOINT RightHandPinky2   
										{
											OFFSET -4.52789 0.00000 0.00000
											CHANNELS 3 Zrotation Xrotation Yrotation
											JOINT RightHandPinky3  
											{
												OFFSET -2.46976 0.00000 0.00000
												CHANNELS 3 Zrotation Xrotation Yrotation
												End site
												{
													OFFSET 0.00000 0.00000 0.00000
												}
											}
										}
									}
								}
							}
						}
					}
					JOINT LeftShoulder  
					{ 
						OFFSET 0.01000 7.91373 5.19711
						CHANNELS 3 Zrotation Xrotation Yrotation
						JOINT LeftArm  
						{
							OFFSET 18.41580 0.00000 0.00000
							CHANNELS 3 Zrotation Xrotation Yrotation
							JOINT LeftForeArm  
							{
								OFFSET 29.11090 0.00000 0.00000
								CHANNELS 3 Zrotation Xrotation Yrotation
								JOINT LeftHand  
								{
									OFFSET 24.65040 0.00000 0.00000
									CHANNELS 3 Zrotation Xrotation Yrotation
									JOINT LeftHandThumb1  
									{
										OFFSET 5.35114 -0.85590 3.97906
										CHANNELS 3 Zrotation Xrotation Yrotation
										JOINT LeftHandThumb2 
										{
											OFFSET 4.52789 0.00000 0.00000
											CHANNELS 3 Zrotation Xrotation Yrotation
											JOINT LeftHandThumb3  
											{
												OFFSET 2.46977 0.00000 0.00000
												CHANNELS 3 Zrotation Xrotation Yrotation
												End site
												{
													OFFSET 0.00000 0.00000 0.00000
												}
											}
										}
									}
									JOINT LeftHandIndex1  
									{
										OFFSET 14.26970 0.00000 2.88139
										CHANNELS 3 Zrotation Xrotation Yrotation
										JOINT LeftHandIndex2  
										{
											OFFSET 5.48836 0.00000 0.00000
											CHANNELS 3 Zrotation Xrotation Yrotation
											JOINT LeftHandIndex3 
											{
												OFFSET 3.01859 0.00000 0.00000
												CHANNELS 3 Zrotation Xrotation Yrotation
												End site
												{
													OFFSET 0.00000 0.00000 0.00000
												}
											}
										}
									}
									JOINT LeftHandMiddle1 
									{
										OFFSET 14.26970 0.00000 -0.09147
										CHANNELS 3 Zrotation Xrotation Yrotation
										JOINT LeftHandMiddle2  
										{
											OFFSET 6.17440 0.00000 0.00000
											CHANNELS 3 Zrotation Xrotation Yrotation
											JOINT LeftHandMiddle3  
											{
												OFFSET 3.56744 0.00000 0.00000
												CHANNELS 3 Zrotation Xrotation Yrotation
												End site
												{
													OFFSET 0.00000 0.00000 0.00000
												}
											}
										}
									}
									JOINT LeftHandRing1  
									{
										OFFSET 12.69180 0.00000 -3.06433
										CHANNELS 3 Zrotation Xrotation Yrotation
										JOINT LeftHandRing2 
										{
											OFFSET 5.62556 0.00000 0.00000
											CHANNELS 3 Zrotation Xrotation Yrotation
											JOINT LeftHandRing3  
											{
												OFFSET 3.56744 0.00000 0.00000
												CHANNELS 3 Zrotation Xrotation Yrotation
												End site
												{
													OFFSET 0.00000 0.00000 0.00000
												}
											}
										}
									}
									JOINT LeftHandPinky1  
									{
										OFFSET 11.11390 0.00000 -6.03719
										CHANNELS 3 Zrotation Xrotation Yrotation
										JOINT LeftHandPinky2   
										{
											OFFSET 4.52789 0.00000 0.00000
											CHANNELS 3 Zrotation Xrotation Yrotation
											JOINT LeftHandPinky3   
											{
												OFFSET 2.46976 0.00000 0.00000
												CHANNELS 3 Zrotation Xrotation Yrotation
												End site
												{
													OFFSET 0.00000 0.00000 0.00000
												}
											}
										}
									}
								}
							}
						}
					}
					JOINT pCube4
					{
						OFFSET 0.00000 10.91090 1.10792
						CHANNELS 3 Zrotation Xrotation Yrotation
						End site
						{
							OFFSET 0.00000 0.00000 0.00000
						}
					}
				}
			}
		}
	}
	JOINT RightUpLeg  
	{
		OFFSET -9.98441 0.00000 0.00000
		CHANNELS 3 Zrotation Xrotation Yrotation
		JOINT RightLeg  
		{
			OFFSET 0.00000 -42.11790 0.00000
			CHANNELS 3 Zrotation Xrotation Yrotation
			JOINT RightFoot  
			{
				OFFSET 0.00000 -45.00020 -0.00001
				CHANNELS 3 Zrotation Xrotation Yrotation
				JOINT RightForeFoot 
				{
					OFFSET 0.00000 -3.74820 0.00000
					CHANNELS 3 Zrotation Xrotation Yrotation
					JOINT RightToeBase 
					{
						OFFSET 0.00000 0.06325 14.43120
						CHANNELS 3 Zrotation Xrotation Yrotation
						End site
						{
							OFFSET 0.00000 0.00000 0.00000
						}
					}
				}
			}
		}
	}
	JOINT LeftUpLeg  
	{
		OFFSET 9.98441 0.00000 0.00000
		CHANNELS 3 Zrotation Xrotation Yrotation
		JOINT LeftLeg  
		{
			OFFSET 0.00000 -42.11800 0.00000
			CHANNELS 3 Zrotation Xrotation Yrotation
			JOINT LeftFoot  
			{
				OFFSET 0.00000 -45.00070 0.00000
				CHANNELS 3 Zrotation Xrotation Yrotation
				JOINT LeftForeFoot  
				{
					OFFSET 0.00000 -3.74824 0.00000
					CHANNELS 3 Zrotation Xrotation Yrotation
					JOINT LeftToeBase  
					{
						OFFSET 0.00000 0.06325 14.43110
						CHANNELS 3 Zrotation Xrotation Yrotation
						End site
						{
							OFFSET 0.00000 0.00000 0.00000
						}
					}
				}
			}
		}
	}
}
MOTION
Frames: 4
Frame Time: 0.050000
0.0 0.0 0.0 -0.0 0.0 -0.0 0.8065797125666881 1.8709421318183528 -1.570608614784864 -1.1920617260613626 4.015361994792218 0.48212942100335865 -1.0391019411913645 -1.4381066262330635 -0.9384703955261814 0.2768877891266653 0.09816714892768486 -0.7059321047561493 -0.3573195699910293 15.32526811302577 -0.17241696630945108 -0.13259602524920902 0.6152528432168697 -0.9560355929156789 -0.01471263437674552 -14.864131860030827 -0.048944839799889055 -12.097979563107003 6.265860776657916 -12.968426063982042 55.01759397378995 36.526254098700456 34.24923785590699 17.807854276898944 38.268272548979546 82.36240534982639 4.507923693518667 -0.5086183876322198 -3.415434601393168 -2.36978 -0.201104 4.8479 1.23799e-06 -2.59538e-07 -3.99014e-06 1.1532e-06 8.61999e-07 -6.12582e-07 4.15954 -4.57969e-06 2.50103e-06 5.00605e-07 1.17626e-06 -1.09937e-06 5.00605e-07 1.17626e-06 -1.09937e-06 12.1951 -1.13344e-06 5.25921e-06 1.11309e-05 -1.18451e-06 -1.72079e-06 -4.5942e-07 3.14939e-07 3.09513e-07 18.091 -3.393e-06 6.28454e-07 7.95139e-16 1.27222e-14 1.19271e-15 -1.59028e-15 6.36111e-15 -0.0 37.0196 2.14169e-06 2.11229e-06 1.43697e-05 3.79404e-06 4.26277e-06 4.00592e-07 -1.38718e-06 -8.17273e-07 11.964592222657847 5.3706709777269825 11.445828014767063 -35.29924959824616 45.264392733945904 -27.07007615664211 -13.528849211466994 -20.76493430800192 -97.16907970876393 2.489769080280671 -0.18711733623010526 -3.7051431391205947 2.59029 -0.543726 -11.8472 -3.83086e-06 2.9981e-06 2.11798e-05 -6.2661e-07 -1.39035e-06 1.86693e-06 -2.91242 1.44339e-06 -3.63115e-06 -5.59715e-07 1.09034e-06 1.13377e-06 -5.59715e-07 1.09034e-06 1.13377e-06 -12.9985 4.90405e-06 -3.76457e-06 -1.33771e-06 -1.464e-06 3.19814e-06 -5.26079e-07 9.86454e-07 1.22523e-06 -18.6344 -1.21198e-06 -2.47337e-06 -1.25358e-05 -1.68607e-06 5.04235e-06 1.87336e-06 6.94431e-07 -4.39454e-06 -34.5048 5.85289e-08 -3.49365e-06 -7.95138e-15 1.27222e-14 4.77083e-15 4.77083e-15 0.0 1.59028e-15 -4.96962e-16 0.0 -5.96354e-16 -2.14252 4.04337 -7.87884 0.000736976 11.8398 0.022817 -8.95265 -13.7596 -17.195 0.0 0.0 -0.0 -3.49049e-07 11.7695 -1.17258e-06 -5.38847 -1.06001 14.489 -6.42443e-05 20.6219 -0.00813738 2.554 -6.64826 -6.50648 3.97569e-16 0.0 4.77083e-15 2.26877e-07 -4.83151 6.05402e-06
0.0 0.0 0.0 -0.0 0.0 -0.0 1.0650832553304581 1.9073715524066637 -1.6490073594268335 -1.1798039220804362 4.0102728078903 0.47917734469327933 -1.01089841405034 -1.4128244847002254 -0.9250319154681541 0.2812626554480854 0.07583375003612772 -0.6876949878073777 -0.3496575131918547 15.318159745795121 -0.21667802132614425 -0.13284614210276283 0.5800233671061774 -0.9070135745979483 -0.005304461845779111 -14.941705580505705 -0.04426898092676835 -12.178200999201461 6.345301382211352 -13.057187306760031 55.639557627319064 36.44325276505605 34.443573590514596 17.416968161185867 39.9142107811324 82.43499935157485 4.215462266575127 -0.5025638264223476 -3.549467080560278 -2.36978 -0.201104 4.8479 1.23799e-06 -2.59538e-07 -3.99014e-06 1.1532e-06 8.61999e-07 -6.12582e-07 4.15954 -4.57969e-06 2.50103e-06 5.00605e-07 1.17626e-06 -1.09937e-06 5.00605e-07 1.17626e-06 -1.09937e-06 12.1951 -1.13344e-06 5.25921e-06 1.11309e-05 -1.18451e-06 -1.72079e-06 -4.5942e-07 3.14939e-07 3.09513e-07 18.091 -3.393e-06 6.28454e-07 7.95139e-16 1.27222e-14 1.19271e-15 -1.59028e-15 6.36111e-15 -0.0 37.0196 2.14169e-06 2.11229e-06 1.43697e-05 3.79404e-06 4.26277e-06 4.00592e-07 -1.38718e-06 -8.17273e-07 12.046481866851021 5.414785130578581 11.445470643255344 -35.44212178967636 45.564430954715384 -26.834341159499427 -13.225964984973288 -21.510381837413703 -96.9936044155833 2.07785875189655 -0.1694257208434044 -3.760088186878756 2.59029 -0.543726 -11.8472 -3.83086e-06 2.9981e-06 2.11798e-05 -6.2661e-07 -1.39035e-06 1.86693e-06 -2.91242 1.44339e-06 -3.63115e-06 -5.59715e-07 1.09034e-06 1.13377e-06 -5.59715e-07 1.09034e-06 1.13377e-06 -12.9985 4.90405e-06 -3.76457e-06 -1.33771e-06 -1.464e-06 3.19814e-06 -5.26079e-07 9.86454e-07 1.22523e-06 -18.6344 -1.21198e-06 -2.47337e-06 -1.25358e-05 -1.68607e-06 5.04235e-06 1.87336e-06 6.94431e-07 -4.39454e-06 -34.5048 5.85289e-08 -3.49365e-06 -7.95138e-15 1.27222e-14 4.77083e-15 4.77083e-15 0.0 1.59028e-15 -4.96962e-16 0.0 -5.96354e-16 -2.14252 4.04337 -7.87884 0.000736976 11.8398 0.022817 -8.95265 -13.7596 -17.195 0.0 0.0 -0.0 -3.49049e-07 11.7695 -1.17258e-06 -5.38847 -1.06001 14.489 -6.42443e-05 20.6219 -0.00813738 2.554 -6.64826 -6.50648 3.97569e-16 0.0 4.77083e-15 2.26877e-07 -4.83151 6.05402e-06
0.0 0.0 0.0 -0.0 0.0 -0.0 1.2991504724853855 1.9714773846203562 -1.7194598645174661 -1.1681834620555853 3.9965022628787845 0.4768978966547572 -0.9830868123842009 -1.3809868702032504 -0.9128016825067194 0.2791178179792479 0.04783481753319503 -0.6712329367804715 -0.3475316260544215 15.266932975128576 -0.24869405304597286 -0.13338783177779306 0.5430495821965742 -0.8579682594810125 -0.0013533998386239077 -15.010030771028754 -0.04072631876253707 -12.220209121274983 6.4080409069217446 -13.13350399602606 56.33647168826471 36.28288652824995 34.877823787677904 16.721290702121387 40.90136940407222 82.27297129531371 3.8611644226823314 -0.48095052305196284 -3.6171192526913614 -2.36978 -0.201104 4.8479 1.23799e-06 -2.59538e-07 -3.99014e-06 1.1532e-06 8.61999e-07 -6.12582e-07 4.15954 -4.57969e-06 2.50103e-06 5.00605e-07 1.17626e-06 -1.09937e-06 5.00605e-07 1.17626e-06 -1.09937e-06 12.1951 -1.13344e-06 5.25921e-06 1.11309e-05 -1.18451e-06 -1.72079e-06 -4.5942e-07 3.14939e-07 3.09513e-07 18.091 -3.393e-06 6.28454e-07 7.95139e-16 1.27222e-14 1.19271e-15 -1.59028e-15 6.36111e-15 -0.0 37.0196 2.14169e-06 2.11229e-06 1.43697e-05 3.79404e-06 4.26277e-06 4.00592e-07 -1.38718e-06 -8.17273e-07 12.099240528342708 5.447914459069588 11.439941548801556 -35.75532299205833 45.61057734902445 -26.85370286790826 -12.718750490607183 -21.984834646690576 -96.43501808540665 1.498486517631688 -0.16484861115041766 -3.5989953646775144 2.59029 -0.543726 -11.8472 -3.83086e-06 2.9981e-06 2.11798e-05 -6.2661e-07 -1.39035e-06 1.86693e-06 -2.91242 1.44339e-06 -3.63115e-06 -5.59715e-07 1.09034e-06 1.13377e-06 -5.59715e-07 1.09034e-06 1.13377e-06 -12.9985 4.90405e-06 -3.76457e-06 -1.33771e-06 -1.464e-06 3.19814e-06 -5.26079e-07 9.86454e-07 1.22523e-06 -18.6344 -1.21198e-06 -2.47337e-06 -1.25358e-05 -1.68607e-06 5.04235e-06 1.87336e-06 6.94431e-07 -4.39454e-06 -34.5048 5.85289e-08 -3.49365e-06 -7.95138e-15 1.27222e-14 4.77083e-15 4.77083e-15 0.0 1.59028e-15 -4.96962e-16 0.0 -5.96354e-16 -2.14252 4.04337 -7.87884 0.000736976 11.8398 0.022817 -8.95265 -13.7596 -17.195 0.0 0.0 -0.0 -3.49049e-07 11.7695 -1.17258e-06 -5.38847 -1.06001 14.489 -6.42443e-05 20.6219 -0.00813738 2.554 -6.64826 -6.50648 3.97569e-16 0.0 4.77083e-15 2.26877e-07 -4.83151 6.05402e-06
0.0 0.0 0.0 -0.0 0.0 -0.0 1.4727896783394254 2.0222833961851094 -1.779028836190188 -1.160570005241234 3.990607716958543 0.47541320511807666 -0.9645201022572545 -1.3597782491347108 -0.8992736595809339 0.2746426909420978 0.019009839201217366 -0.6554789773116187 -0.3267376842085876 15.238755709271086 -0.31476963383381856 -0.12641235576903 0.510211869161151 -0.8916105387013893 0.016206271309340714 -15.079641352970842 -0.04026688382787105 -12.296069195682241 6.4835898787473125 -13.234063707830721 56.9580609666008 35.871756189212554 35.21554790990296 15.98861891940189 40.943981376251756 82.12732164927108 3.704081683650877 -0.4606669231211644 -3.5839255035048923 -2.36978 -0.201104 4.8479 1.23799e-06 -2.59538e-07 -3.99014e-06 1.1532e-06 8.61999e-07 -6.12582e-07 4.15954 -4.57969e-06 2.50103e-06 5.00605e-07 1.17626e-06 -1.09937e-06 5.00605e-07 1.17626e-06 -1.09937e-06 12.1951 -1.13344e-06 5.25921e-06 1.11309e-05 -1.18451e-06 -1.72079e-06 -4.5942e-07 3.14939e-07 3.09513e-07 18.091 -3.393e-06 6.28454e-07 7.95139e-16 1.27222e-14 1.19271e-15 -1.59028e-15 6.36111e-15 -0.0 37.0196 2.14169e-06 2.11229e-06 1.43697e-05 3.79404e-06 4.26277e-06 4.00592e-07 -1.38718e-06 -8.17273e-07 12.16561212647266 5.493430196192533 11.474427042838853 -36.167262183517266 45.40463862955582 -26.921131047031587 -12.170586593983195 -21.85813547824481 -95.80979408607867 0.9770883056376327 -0.16247829083734777 -3.4589738303737243 2.59029 -0.543726 -11.8472 -3.83086e-06 2.9981e-06 2.11798e-05 -6.2661e-07 -1.39035e-06 1.86693e-06 -2.91242 1.44339e-06 -3.63115e-06 -5.59715e-07 1.09034e-06 1.13377e-06 -5.59715e-07 1.09034e-06 1.13377e-06 -12.9985 4.90405e-06 -3.76457e-06 -1.33771e-06 -1.464e-06 3.19814e-06 -5.26079e-07 9.86454e-07 1.22523e-06 -18.6344 -1.21198e-06 -2.47337e-06 -1.25358e-05 -1.68607e-06 5.04235e-06 1.87336e-06 6.94431e-07 -4.39454e-06 -34.5048 5.85289e-08 -3.49365e-06 -7.95138e-15 1.27222e-14 4.77083e-15 4.77083e-15 0.0 1.59028e-15 -4.96962e-16 0.0 -5.96354e-16 -2.14252 4.04337 -7.87884 0.000736976 11.8398 0.022817 -8.95265 -13.7596 -17.195 0.0 0.0 -0.0 -3.49049e-07 11.7695 -1.17258e-06 -5.38847 -1.06001 14.489 -6.42443e-05 20.6219 -0.00813738 2.554 -6.64826 -6.50648 3.97569e-16 0.0 4.77083e-15 2.26877e-07 -4.83151 6.05402e-06
